# xmcd
#
# Track frame offsets: 
#        150
#        20859
#        34955
#        54957
#        94210
#        106519
#        128112
#        148947
#        172197
#        188937
#        220931
#        239475
#        253329
#        271831
#        290720
#        310949
#        325767
#        344553
#
# Disc length: 4801 seconds
#
# Revision: 1
# Processed by: cddbd v1.5.2PL0 Copyright (c) Steve Scherf et al.
# Submitted via: ExactAudioCopy v1.1
#
DISCID=2012bf12
DTITLE=Various Artist - Akella Presents - vol.100 - Various Styles Of
DTITLE=Blues  CD1
DYEAR=2016
DGENRE=Blues
TTITLE0=The Blues Mystery - A Daughter Can Break Your Heart
TTITLE1=Terry Davidson and the Gears - Without The Blues
TTITLE2=Ronnie Baker Brooks - Love Me Baby
TTITLE3=Steven Seagal and Thunderbox - Slow Boat To China
TTITLE4=Delbert McClinton and Glen Clark - If I Could Be Your Lover
TTITLE5=Tansini - Yellow
TTITLE6=Ged Wilson - Reign Cheque
TTITLE7=Max Johns - Need Somebody
TTITLE8=Duke Robillard - Blues For Eddie Jones
TTITLE9=Diane Blue and Ronnie Earl - As The Years Go Passing By - 
TTITLE10=Back Door Slam - Real Man
TTITLE11=Snowy White and White Flames - Muddy Fingers
TTITLE12=Smokin' Joe Kubek and Bnois King - Wishful Thinking
TTITLE13=Marcus Bonfanti - Blind Alley
TTITLE14=Lil' Ed And The Blues Imperials - My Chains Are Gone
TTITLE15=Ray Bonneville - Canary Yellow Car
TTITLE16=The Homemade Jamz Blues Band - Right Thang Wrong Woman
TTITLE17=Jake Chisholm - Is There Another Man
EXTD=
EXTT0=
EXTT1=
EXTT2=
EXTT3=
EXTT4=
EXTT5=
EXTT6=
EXTT7=
EXTT8=
EXTT9=
EXTT10=
EXTT11=
EXTT12=
EXTT13=
EXTT14=
EXTT15=
EXTT16=
EXTT17=
PLAYORDER=
